<svg width="903" height="104" viewBox="0 0 903 104" fill="none" xmlns="http://www.w3.org/2000/svg">
<path d="M30.4895 40.5561C42.9531 40.5561 55.5815 39.433 67.9933 38.7435C114.992 36.1324 161.965 33.1976 209.008 31.4302C317.775 27.3439 426.634 35.385 535.228 40.5561C543.863 40.9673 553.564 40.4521 562.168 41.6813C566.048 42.2355 554.426 42.9078 550.542 43.4314C483.228 52.5075 415.876 62.1061 348.647 71.8093C345.582 72.2517 336.361 73.1845 339.458 73.1845C347.854 73.1845 356.253 73.2566 364.648 73.1845C408.305 72.8092 451.97 69.0417 495.537 66.6213C585.933 61.5993 676.445 64.1263 766.814 69.1215C795.61 70.7133 824.069 73.1845 852.885 73.1845C858.874 73.1845 866.846 74.6738 872.075 72.0593" stroke="#C7F375" stroke-width="60" stroke-linecap="round"/>
</svg>
